<svg width="410" height="96" viewBox="0 0 410 96" fill="none" xmlns="http://www.w3.org/2000/svg">
<path d="M6.08 51V3.896H20.16C24.896 3.896 28.928 4.6 32.256 6.008C35.584 7.416 38.2507 9.29333 40.256 11.64C42.304 13.9867 43.7973 16.6107 44.736 19.512C45.6747 22.4133 46.144 25.336 46.144 28.28C46.144 31.7787 45.504 34.936 44.224 37.752C42.9867 40.5253 41.28 42.9147 39.104 44.92C36.928 46.8827 34.4107 48.3973 31.552 49.464C28.6933 50.488 25.664 51 22.464 51H6.08ZM15.36 42.04H20.864C23.2107 42.04 25.344 41.7413 27.264 41.144C29.184 40.504 30.8267 39.5867 32.192 38.392C33.6 37.1973 34.6667 35.704 35.392 33.912C36.16 32.0773 36.544 29.9867 36.544 27.64C36.544 24.568 36.032 22.072 35.008 20.152C34.0267 18.1893 32.7893 16.6747 31.296 15.608C29.8453 14.5413 28.352 13.816 26.816 13.432C25.28 13.0053 23.9787 12.792 22.912 12.792H15.36V42.04ZM53.983 23.032H62.943V51H53.983V23.032ZM53.791 13.112C53.791 11.7893 54.303 10.7013 55.327 9.848C56.3937 8.99466 57.5243 8.568 58.719 8.568C59.9137 8.568 61.0017 8.99466 61.983 9.848C63.007 10.7013 63.519 11.7893 63.519 13.112C63.519 14.4347 63.007 15.5227 61.983 16.376C61.0017 17.1867 59.9137 17.592 58.719 17.592C57.5243 17.592 56.3937 17.1867 55.327 16.376C54.303 15.5227 53.791 14.4347 53.791 13.112ZM86.6345 65.08C84.1172 65.08 81.9838 64.7813 80.2345 64.184C78.5278 63.5867 77.0772 62.8613 75.8825 62.008C74.6878 61.1547 73.6212 60.344 72.6825 59.576L77.9305 53.432C78.9118 54.328 80.0425 55.1813 81.3225 55.992C82.6452 56.8453 84.3732 57.272 86.5065 57.272C87.9145 57.272 89.2158 57.016 90.4105 56.504C91.6478 56.0347 92.6292 55.3307 93.3545 54.392C94.1225 53.4533 94.5065 52.28 94.5065 50.872V44.728L94.8265 46.328C94.1438 47.7787 92.9065 49.0587 91.1145 50.168C89.3225 51.2347 86.9758 51.768 84.0745 51.768C81.5572 51.768 79.2105 51.128 77.0345 49.848C74.9012 48.5253 73.1945 46.7547 71.9145 44.536C70.6345 42.2747 69.9945 39.7147 69.9945 36.856C69.9945 33.912 70.6772 31.3093 72.0425 29.048C73.4078 26.744 75.1785 24.9307 77.3545 23.608C79.5305 22.2853 81.8345 21.624 84.2665 21.624C86.6985 21.624 88.7892 21.9867 90.5385 22.712C92.3305 23.3947 93.6745 24.248 94.5705 25.272L94.2505 26.104L95.2105 23.032H103.467V51C103.467 53.7307 102.699 56.1413 101.163 58.232C99.6265 60.3653 97.5785 62.0293 95.0185 63.224C92.5012 64.4613 89.7065 65.08 86.6345 65.08ZM79.0185 36.6C79.0185 38.0933 79.3598 39.4373 80.0425 40.632C80.7252 41.8267 81.6425 42.7653 82.7945 43.448C83.9892 44.1307 85.3118 44.472 86.7625 44.472C87.9998 44.472 89.0878 44.3227 90.0265 44.024C91.0078 43.6827 91.8612 43.2133 92.5865 42.616C93.3545 41.976 93.9945 41.1867 94.5065 40.248V33.4C94.1225 32.4613 93.5465 31.672 92.7785 31.032C92.0105 30.3493 91.1145 29.8373 90.0905 29.496C89.1092 29.112 87.9998 28.92 86.7625 28.92C85.3118 28.92 83.9892 29.2613 82.7945 29.944C81.6425 30.584 80.7252 31.48 80.0425 32.632C79.3598 33.784 79.0185 35.1067 79.0185 36.6ZM112.671 23.032H121.631V51H112.671V23.032ZM112.479 13.112C112.479 11.7893 112.991 10.7013 114.015 9.848C115.081 8.99466 116.212 8.568 117.407 8.568C118.601 8.568 119.689 8.99466 120.671 9.848C121.695 10.7013 122.207 11.7893 122.207 13.112C122.207 14.4347 121.695 15.5227 120.671 16.376C119.689 17.1867 118.601 17.592 117.407 17.592C116.212 17.592 115.081 17.1867 114.015 16.376C112.991 15.5227 112.479 14.4347 112.479 13.112ZM129.706 32.44H141.738V40.248H129.706V32.44ZM187.221 47.096C186.709 47.5227 185.749 48.0987 184.341 48.824C182.975 49.5493 181.29 50.1893 179.285 50.744C177.279 51.2987 175.061 51.5547 172.629 51.512C168.917 51.4267 165.589 50.7653 162.645 49.528C159.743 48.248 157.269 46.52 155.22 44.344C153.215 42.168 151.679 39.672 150.613 36.856C149.546 34.04 149.013 31.032 149.013 27.832C149.013 24.248 149.546 20.9627 150.613 17.976C151.722 14.9893 153.279 12.408 155.285 10.232C157.333 8.056 159.765 6.37067 162.581 5.176C165.397 3.98133 168.511 3.384 171.925 3.384C175.082 3.384 177.877 3.81067 180.309 4.664C182.741 5.51733 184.725 6.43466 186.261 7.416L182.613 16.184C181.546 15.3733 180.117 14.5413 178.325 13.688C176.575 12.792 174.549 12.344 172.245 12.344C170.453 12.344 168.725 12.728 167.061 13.496C165.439 14.2213 163.988 15.2667 162.708 16.632C161.471 17.9973 160.49 19.5973 159.765 21.432C159.039 23.224 158.677 25.1867 158.677 27.32C158.677 29.5813 158.997 31.6507 159.637 33.528C160.319 35.4053 161.279 37.0267 162.517 38.392C163.754 39.7147 165.226 40.7387 166.933 41.464C168.682 42.1893 170.645 42.552 172.821 42.552C175.338 42.552 177.493 42.1467 179.285 41.336C181.076 40.5253 182.442 39.672 183.381 38.776L187.221 47.096ZM206.822 51.768C204.219 51.768 201.851 51.256 199.718 50.232C197.627 49.1653 195.963 47.544 194.726 45.368C193.488 43.192 192.87 40.4187 192.87 37.048C192.87 33.8907 193.51 31.16 194.79 28.856C196.07 26.552 197.755 24.7813 199.845 23.544C201.936 22.264 204.155 21.624 206.502 21.624C209.275 21.624 211.366 22.0933 212.774 23.032C214.224 23.928 215.419 24.9307 216.358 26.04L215.974 27.128L216.806 23.032H225.126V51H216.166V44.92L216.87 46.84C216.784 46.84 216.528 47.096 216.102 47.608C215.675 48.0773 215.035 48.6533 214.182 49.336C213.371 49.976 212.347 50.5307 211.11 51C209.915 51.512 208.486 51.768 206.822 51.768ZM209.382 44.472C210.448 44.472 211.408 44.3227 212.262 44.024C213.115 43.6827 213.862 43.2133 214.502 42.616C215.142 41.976 215.696 41.1867 216.166 40.248V33.4C215.824 32.4613 215.312 31.672 214.63 31.032C213.947 30.3493 213.136 29.8373 212.198 29.496C211.259 29.112 210.214 28.92 209.062 28.92C207.782 28.92 206.587 29.2613 205.478 29.944C204.411 30.584 203.558 31.48 202.918 32.632C202.278 33.784 201.958 35.1067 201.958 36.6C201.958 38.0933 202.299 39.4373 202.982 40.632C203.664 41.8267 204.56 42.7653 205.67 43.448C206.822 44.1307 208.059 44.472 209.382 44.472ZM245.75 51.768C243.147 51.768 240.822 51.1707 238.774 49.976C236.726 48.7387 235.105 46.968 233.91 44.664C232.758 42.36 232.182 39.6293 232.182 36.472C232.182 33.3147 232.822 30.6267 234.102 28.408C235.382 26.1893 237.131 24.504 239.35 23.352C241.569 22.2 244.086 21.624 246.902 21.624C248.694 21.624 250.401 21.9013 252.022 22.456C253.686 23.0107 255.073 23.864 256.182 25.016V27.832V0.503998H265.078V51H256.118V45.56L256.822 47.48C255.371 48.6747 253.75 49.6987 251.958 50.552C250.166 51.3627 248.097 51.768 245.75 51.768ZM248.694 44.216C249.889 44.216 250.934 44.0667 251.83 43.768C252.769 43.4267 253.579 42.9573 254.262 42.36C254.987 41.72 255.606 40.9307 256.118 39.992V33.144C255.777 32.2053 255.243 31.416 254.518 30.776C253.835 30.0933 252.982 29.5813 251.958 29.24C250.977 28.856 249.889 28.664 248.694 28.664C247.371 28.664 246.134 29.0053 244.982 29.688C243.873 30.328 242.977 31.224 242.294 32.376C241.611 33.528 241.27 34.8507 241.27 36.344C241.27 37.8373 241.611 39.1813 242.294 40.376C242.977 41.5707 243.873 42.5093 244.982 43.192C246.134 43.8747 247.371 44.216 248.694 44.216ZM288.056 51.768C284.642 51.768 281.741 51.128 279.352 49.848C277.005 48.568 275.213 46.7973 273.976 44.536C272.738 42.2747 272.12 39.672 272.12 36.728C272.12 33.912 272.845 31.3733 274.296 29.112C275.746 26.8507 277.688 25.0587 280.12 23.736C282.552 22.3707 285.261 21.688 288.248 21.688C292.258 21.688 295.544 22.8613 298.104 25.208C300.706 27.512 302.391 30.8613 303.16 35.256L281.4 42.168L279.416 37.304L295.16 31.992L293.304 32.824C292.962 31.7147 292.344 30.7547 291.448 29.944C290.594 29.0907 289.293 28.664 287.544 28.664C286.221 28.664 285.048 28.984 284.024 29.624C283.042 30.2213 282.274 31.096 281.72 32.248C281.208 33.3573 280.952 34.68 280.952 36.216C280.952 37.9653 281.272 39.4373 281.912 40.632C282.552 41.784 283.426 42.6587 284.536 43.256C285.645 43.8533 286.882 44.152 288.248 44.152C289.229 44.152 290.168 43.9813 291.064 43.64C292.002 43.2987 292.92 42.8507 293.816 42.296L297.784 48.952C296.29 49.8053 294.669 50.488 292.92 51C291.213 51.512 289.592 51.768 288.056 51.768ZM317.799 23.032L318.503 28.024L318.375 27.576C319.356 25.8267 320.743 24.4187 322.535 23.352C324.327 22.2427 326.524 21.688 329.127 21.688C331.772 21.688 333.969 22.4773 335.719 24.056C337.511 25.592 338.428 27.5973 338.471 30.072V51H329.511V33.4C329.468 32.1627 329.127 31.1813 328.487 30.456C327.889 29.688 326.865 29.304 325.415 29.304C324.049 29.304 322.855 29.752 321.831 30.648C320.807 31.544 320.017 32.76 319.463 34.296C318.908 35.832 318.631 37.6027 318.631 39.608V51H309.671V23.032H317.799ZM371.415 48.504C370.177 49.4853 368.62 50.2747 366.743 50.872C364.908 51.4693 363.095 51.768 361.303 51.768C358.103 51.768 355.308 51.192 352.919 50.04C350.572 48.8453 348.737 47.16 347.415 44.984C346.135 42.7653 345.495 40.0987 345.495 36.984C345.495 33.8693 346.199 31.224 347.607 29.048C349.015 26.8293 350.849 25.144 353.111 23.992C355.415 22.84 357.825 22.264 360.343 22.264C362.86 22.264 365.036 22.6053 366.871 23.288C368.748 23.9707 370.348 24.8667 371.671 25.976L367.319 31.736C366.721 31.2667 365.889 30.7973 364.823 30.328C363.799 29.816 362.583 29.56 361.175 29.56C359.937 29.56 358.807 29.88 357.783 30.52C356.759 31.16 355.948 32.0347 355.351 33.144C354.753 34.2533 354.455 35.5333 354.455 36.984C354.455 38.3493 354.775 39.608 355.415 40.76C356.055 41.912 356.929 42.8293 358.039 43.512C359.191 44.152 360.535 44.472 362.071 44.472C363.052 44.472 363.948 44.344 364.759 44.088C365.612 43.7893 366.337 43.384 366.935 42.872L371.415 48.504ZM392.056 51.768C388.642 51.768 385.741 51.128 383.352 49.848C381.005 48.568 379.213 46.7973 377.976 44.536C376.738 42.2747 376.12 39.672 376.12 36.728C376.12 33.912 376.845 31.3733 378.296 29.112C379.746 26.8507 381.688 25.0587 384.12 23.736C386.552 22.3707 389.261 21.688 392.248 21.688C396.258 21.688 399.544 22.8613 402.104 25.208C404.706 27.512 406.391 30.8613 407.16 35.256L385.4 42.168L383.416 37.304L399.16 31.992L397.304 32.824C396.962 31.7147 396.344 30.7547 395.448 29.944C394.594 29.0907 393.293 28.664 391.544 28.664C390.221 28.664 389.048 28.984 388.024 29.624C387.042 30.2213 386.274 31.096 385.72 32.248C385.208 33.3573 384.952 34.68 384.952 36.216C384.952 37.9653 385.272 39.4373 385.912 40.632C386.552 41.784 387.426 42.6587 388.536 43.256C389.645 43.8533 390.882 44.152 392.248 44.152C393.229 44.152 394.168 43.9813 395.064 43.64C396.002 43.2987 396.92 42.8507 397.816 42.296L401.784 48.952C400.29 49.8053 398.669 50.488 396.92 51C395.213 51.512 393.592 51.768 392.056 51.768Z" fill="#072148"/>
<path d="M6.824 86V74.8H7.8L12.92 83.536H12.408L17.48 74.8H18.456V86H17.32V76.576H17.592L12.92 84.576H12.36L7.656 76.576H7.96V86H6.824ZM27.1293 86V84.144L27.0813 83.84V80.736C27.0813 80.0213 26.8786 79.472 26.4733 79.088C26.0786 78.704 25.4866 78.512 24.6973 78.512C24.1533 78.512 23.6359 78.6027 23.1453 78.784C22.6546 78.9653 22.2386 79.2053 21.8973 79.504L21.3853 78.656C21.8119 78.2933 22.3239 78.016 22.9213 77.824C23.5186 77.6213 24.1479 77.52 24.8093 77.52C25.8973 77.52 26.7346 77.792 27.3213 78.336C27.9186 78.8693 28.2173 79.6853 28.2173 80.784V86H27.1293ZM24.2333 86.08C23.6039 86.08 23.0546 85.9787 22.5853 85.776C22.1266 85.5627 21.7746 85.2747 21.5293 84.912C21.2839 84.5387 21.1613 84.112 21.1613 83.632C21.1613 83.1947 21.2626 82.8 21.4653 82.448C21.6786 82.0853 22.0199 81.7973 22.4893 81.584C22.9693 81.36 23.6093 81.248 24.4093 81.248H27.3053V82.096H24.4413C23.6306 82.096 23.0653 82.24 22.7453 82.528C22.4359 82.816 22.2812 83.1733 22.2812 83.6C22.2812 84.08 22.4679 84.464 22.8413 84.752C23.2146 85.04 23.7373 85.184 24.4093 85.184C25.0493 85.184 25.5986 85.04 26.0573 84.752C26.5266 84.4533 26.8679 84.0267 27.0813 83.472L27.3373 84.256C27.1239 84.8107 26.7506 85.2533 26.2173 85.584C25.6946 85.9147 25.0333 86.08 24.2333 86.08ZM32.1988 83.824L32.2308 82.368L37.4628 77.6H38.8548L35.1588 81.136L34.5188 81.68L32.1988 83.824ZM31.3028 86V74.128H32.4388V86H31.3028ZM37.8148 86L34.3108 81.632L35.0468 80.752L39.2068 86H37.8148ZM44.152 86.08C43.2773 86.08 42.5093 85.8987 41.848 85.536C41.1867 85.1627 40.6693 84.656 40.296 84.016C39.9227 83.3653 39.736 82.624 39.736 81.792C39.736 80.96 39.912 80.224 40.264 79.584C40.6267 78.944 41.1173 78.4427 41.736 78.08C42.3653 77.7067 43.0693 77.52 43.848 77.52C44.6373 77.52 45.336 77.7013 45.944 78.064C46.5627 78.416 47.048 78.9173 47.4 79.568C47.752 80.208 47.928 80.9493 47.928 81.792C47.928 81.8453 47.9227 81.904 47.912 81.968C47.912 82.0213 47.912 82.08 47.912 82.144H40.6V81.296H47.304L46.856 81.632C46.856 81.024 46.7227 80.4853 46.456 80.016C46.2 79.536 45.848 79.1627 45.4 78.896C44.952 78.6293 44.4347 78.496 43.848 78.496C43.272 78.496 42.7547 78.6293 42.296 78.896C41.8373 79.1627 41.48 79.536 41.224 80.016C40.968 80.496 40.84 81.0453 40.84 81.664V81.84C40.84 82.48 40.9787 83.0453 41.256 83.536C41.544 84.016 41.9387 84.3947 42.44 84.672C42.952 84.9387 43.5333 85.072 44.184 85.072C44.696 85.072 45.1707 84.9813 45.608 84.8C46.056 84.6187 46.44 84.3413 46.76 83.968L47.4 84.704C47.0267 85.152 46.5573 85.4933 45.992 85.728C45.4373 85.9627 44.824 86.08 44.152 86.08ZM57.7558 86.096C56.9238 86.096 56.1238 85.9627 55.3558 85.696C54.5984 85.4187 54.0118 85.0667 53.5958 84.64L54.0598 83.728C54.4544 84.112 54.9824 84.4373 55.6438 84.704C56.3158 84.96 57.0198 85.088 57.7558 85.088C58.4598 85.088 59.0304 85.0027 59.4678 84.832C59.9158 84.6507 60.2411 84.4107 60.4438 84.112C60.6571 83.8133 60.7638 83.4827 60.7638 83.12C60.7638 82.6827 60.6358 82.3307 60.3798 82.064C60.1344 81.7973 59.8091 81.5893 59.4038 81.44C58.9984 81.28 58.5504 81.1413 58.0598 81.024C57.5691 80.9067 57.0784 80.784 56.5878 80.656C56.0971 80.5173 55.6438 80.336 55.2278 80.112C54.8224 79.888 54.4918 79.5947 54.2358 79.232C53.9904 78.8587 53.8678 78.3733 53.8678 77.776C53.8678 77.2213 54.0118 76.7147 54.2998 76.256C54.5984 75.7867 55.0518 75.4133 55.6598 75.136C56.2678 74.848 57.0464 74.704 57.9958 74.704C58.6251 74.704 59.2491 74.7947 59.8678 74.976C60.4864 75.1467 61.0198 75.3867 61.4678 75.696L61.0677 76.64C60.5878 76.32 60.0758 76.0853 59.5318 75.936C58.9984 75.7867 58.4811 75.712 57.9798 75.712C57.3078 75.712 56.7531 75.8027 56.3158 75.984C55.8784 76.1653 55.5531 76.4107 55.3398 76.72C55.1371 77.0187 55.0358 77.36 55.0358 77.744C55.0358 78.1813 55.1584 78.5333 55.4038 78.8C55.6598 79.0667 55.9904 79.2747 56.3958 79.424C56.8118 79.5733 57.2651 79.7067 57.7558 79.824C58.2464 79.9413 58.7318 80.0693 59.2118 80.208C59.7024 80.3467 60.1504 80.528 60.5558 80.752C60.9718 80.9653 61.3024 81.2533 61.5478 81.616C61.8038 81.9787 61.9318 82.4533 61.9318 83.04C61.9318 83.584 61.7824 84.0907 61.4838 84.56C61.1851 85.0187 60.7264 85.392 60.1078 85.68C59.4998 85.9573 58.7158 86.096 57.7558 86.096ZM74.7675 77.52C75.4502 77.52 76.0422 77.6533 76.5435 77.92C77.0555 78.176 77.4502 78.5707 77.7275 79.104C78.0155 79.6373 78.1595 80.3093 78.1595 81.12V86H77.0235V81.232C77.0235 80.3467 76.8102 79.68 76.3835 79.232C75.9675 78.7733 75.3755 78.544 74.6075 78.544C74.0315 78.544 73.5302 78.6667 73.1035 78.912C72.6875 79.1467 72.3622 79.4933 72.1275 79.952C71.9035 80.4 71.7915 80.944 71.7915 81.584V86H70.6555V81.232C70.6555 80.3467 70.4422 79.68 70.0155 79.232C69.5888 78.7733 68.9915 78.544 68.2235 78.544C67.6582 78.544 67.1622 78.6667 66.7355 78.912C66.3088 79.1467 65.9782 79.4933 65.7435 79.952C65.5195 80.4 65.4075 80.944 65.4075 81.584V86H64.2715V77.6H65.3595V79.872L65.1835 79.472C65.4395 78.864 65.8502 78.3893 66.4155 78.048C66.9915 77.696 67.6688 77.52 68.4475 77.52C69.2688 77.52 69.9675 77.728 70.5435 78.144C71.1195 78.5493 71.4928 79.1627 71.6635 79.984L71.2155 79.808C71.4608 79.1253 71.8928 78.576 72.5115 78.16C73.1408 77.7333 73.8928 77.52 74.7675 77.52ZM86.5043 86V84.144L86.4563 83.84V80.736C86.4563 80.0213 86.2536 79.472 85.8483 79.088C85.4536 78.704 84.8616 78.512 84.0723 78.512C83.5283 78.512 83.0109 78.6027 82.5203 78.784C82.0296 78.9653 81.6136 79.2053 81.2723 79.504L80.7603 78.656C81.1869 78.2933 81.6989 78.016 82.2963 77.824C82.8936 77.6213 83.5229 77.52 84.1843 77.52C85.2723 77.52 86.1096 77.792 86.6963 78.336C87.2936 78.8693 87.5923 79.6853 87.5923 80.784V86H86.5043ZM83.6083 86.08C82.9789 86.08 82.4296 85.9787 81.9603 85.776C81.5016 85.5627 81.1496 85.2747 80.9043 84.912C80.6589 84.5387 80.5363 84.112 80.5363 83.632C80.5363 83.1947 80.6376 82.8 80.8403 82.448C81.0536 82.0853 81.3949 81.7973 81.8643 81.584C82.3443 81.36 82.9843 81.248 83.7843 81.248H86.6803V82.096H83.8163C83.0056 82.096 82.4403 82.24 82.1203 82.528C81.8109 82.816 81.6562 83.1733 81.6562 83.6C81.6562 84.08 81.8429 84.464 82.2163 84.752C82.5896 85.04 83.1123 85.184 83.7843 85.184C84.4243 85.184 84.9736 85.04 85.4323 84.752C85.9016 84.4533 86.2429 84.0267 86.4563 83.472L86.7123 84.256C86.4989 84.8107 86.1256 85.2533 85.5923 85.584C85.0696 85.9147 84.4083 86.08 83.6083 86.08ZM90.6778 86V77.6H91.7658V79.888L91.6538 79.488C91.8884 78.848 92.2831 78.3627 92.8378 78.032C93.3924 77.6907 94.0804 77.52 94.9018 77.52V78.624C94.8591 78.624 94.8164 78.624 94.7738 78.624C94.7311 78.6133 94.6884 78.608 94.6458 78.608C93.7604 78.608 93.0671 78.88 92.5658 79.424C92.0644 79.9573 91.8138 80.72 91.8138 81.712V86H90.6778ZM99.99 86.08C99.2007 86.08 98.5927 85.8667 98.166 85.44C97.7393 85.0133 97.526 84.4107 97.526 83.632V75.744H98.662V83.568C98.662 84.0587 98.7847 84.4373 99.03 84.704C99.286 84.9707 99.6487 85.104 100.118 85.104C100.619 85.104 101.035 84.96 101.366 84.672L101.766 85.488C101.542 85.6907 101.27 85.84 100.95 85.936C100.641 86.032 100.321 86.08 99.99 86.08ZM96.022 78.544V77.6H101.222V78.544H96.022ZM107.105 86.08C106.23 86.08 105.462 85.8987 104.801 85.536C104.14 85.1627 103.622 84.656 103.249 84.016C102.876 83.3653 102.689 82.624 102.689 81.792C102.689 80.96 102.865 80.224 103.217 79.584C103.58 78.944 104.07 78.4427 104.689 78.08C105.318 77.7067 106.022 77.52 106.801 77.52C107.59 77.52 108.289 77.7013 108.897 78.064C109.516 78.416 110.001 78.9173 110.353 79.568C110.705 80.208 110.881 80.9493 110.881 81.792C110.881 81.8453 110.876 81.904 110.865 81.968C110.865 82.0213 110.865 82.08 110.865 82.144H103.553V81.296H110.257L109.809 81.632C109.809 81.024 109.676 80.4853 109.409 80.016C109.153 79.536 108.801 79.1627 108.353 78.896C107.905 78.6293 107.388 78.496 106.801 78.496C106.225 78.496 105.708 78.6293 105.249 78.896C104.79 79.1627 104.433 79.536 104.177 80.016C103.921 80.496 103.793 81.0453 103.793 81.664V81.84C103.793 82.48 103.932 83.0453 104.209 83.536C104.497 84.016 104.892 84.3947 105.393 84.672C105.905 84.9387 106.486 85.072 107.137 85.072C107.649 85.072 108.124 84.9813 108.561 84.8C109.009 84.6187 109.393 84.3413 109.713 83.968L110.353 84.704C109.98 85.152 109.51 85.4933 108.945 85.728C108.39 85.9627 107.777 86.08 107.105 86.08ZM113.193 86V77.6H114.281V79.888L114.169 79.488C114.404 78.848 114.799 78.3627 115.353 78.032C115.908 77.6907 116.596 77.52 117.417 77.52V78.624C117.375 78.624 117.332 78.624 117.289 78.624C117.247 78.6133 117.204 78.608 117.161 78.608C116.276 78.608 115.583 78.88 115.081 79.424C114.58 79.9573 114.329 80.72 114.329 81.712V86H113.193ZM124.043 86V74.8H128.603C129.797 74.8 130.843 75.04 131.739 75.52C132.645 75.9893 133.349 76.6453 133.851 77.488C134.352 78.3307 134.603 79.3013 134.603 80.4C134.603 81.4987 134.352 82.4693 133.851 83.312C133.349 84.1547 132.645 84.816 131.739 85.296C130.843 85.7653 129.797 86 128.603 86H124.043ZM125.227 84.976H128.539C129.531 84.976 130.389 84.784 131.115 84.4C131.851 84.0053 132.421 83.4667 132.827 82.784C133.232 82.0907 133.435 81.296 133.435 80.4C133.435 79.4933 133.232 78.6987 132.827 78.016C132.421 77.3333 131.851 76.8 131.115 76.416C130.389 76.0213 129.531 75.824 128.539 75.824H125.227V84.976ZM140.59 86.08C139.715 86.08 138.947 85.8987 138.286 85.536C137.624 85.1627 137.107 84.656 136.734 84.016C136.36 83.3653 136.174 82.624 136.174 81.792C136.174 80.96 136.35 80.224 136.702 79.584C137.064 78.944 137.555 78.4427 138.174 78.08C138.803 77.7067 139.507 77.52 140.286 77.52C141.075 77.52 141.774 77.7013 142.382 78.064C143 78.416 143.486 78.9173 143.838 79.568C144.19 80.208 144.366 80.9493 144.366 81.792C144.366 81.8453 144.36 81.904 144.35 81.968C144.35 82.0213 144.35 82.08 144.35 82.144H137.038V81.296H143.742L143.294 81.632C143.294 81.024 143.16 80.4853 142.894 80.016C142.638 79.536 142.286 79.1627 141.838 78.896C141.39 78.6293 140.872 78.496 140.286 78.496C139.71 78.496 139.192 78.6293 138.734 78.896C138.275 79.1627 137.918 79.536 137.662 80.016C137.406 80.496 137.278 81.0453 137.278 81.664V81.84C137.278 82.48 137.416 83.0453 137.694 83.536C137.982 84.016 138.376 84.3947 138.878 84.672C139.39 84.9387 139.971 85.072 140.622 85.072C141.134 85.072 141.608 84.9813 142.046 84.8C142.494 84.6187 142.878 84.3413 143.198 83.968L143.838 84.704C143.464 85.152 142.995 85.4933 142.43 85.728C141.875 85.9627 141.262 86.08 140.59 86.08ZM150.166 86.08C149.334 86.08 148.587 85.8987 147.926 85.536C147.275 85.1627 146.763 84.656 146.39 84.016C146.016 83.3653 145.83 82.624 145.83 81.792C145.83 80.9493 146.016 80.208 146.39 79.568C146.763 78.928 147.275 78.4267 147.926 78.064C148.587 77.7013 149.334 77.52 150.166 77.52C150.88 77.52 151.526 77.6587 152.102 77.936C152.678 78.2133 153.131 78.6293 153.462 79.184L152.614 79.76C152.326 79.3333 151.968 79.0187 151.542 78.816C151.115 78.6133 150.651 78.512 150.15 78.512C149.552 78.512 149.014 78.6507 148.534 78.928C148.054 79.1947 147.675 79.5733 147.398 80.064C147.12 80.5547 146.982 81.1307 146.982 81.792C146.982 82.4533 147.12 83.0293 147.398 83.52C147.675 84.0107 148.054 84.3947 148.534 84.672C149.014 84.9387 149.552 85.072 150.15 85.072C150.651 85.072 151.115 84.9707 151.542 84.768C151.968 84.5653 152.326 84.256 152.614 83.84L153.462 84.416C153.131 84.96 152.678 85.376 152.102 85.664C151.526 85.9413 150.88 86.08 150.166 86.08ZM155.568 86V77.6H156.704V86H155.568ZM156.144 75.744C155.91 75.744 155.712 75.664 155.552 75.504C155.392 75.344 155.312 75.152 155.312 74.928C155.312 74.704 155.392 74.5173 155.552 74.368C155.712 74.208 155.91 74.128 156.144 74.128C156.379 74.128 156.576 74.2027 156.736 74.352C156.896 74.5013 156.976 74.688 156.976 74.912C156.976 75.1467 156.896 75.344 156.736 75.504C156.587 75.664 156.39 75.744 156.144 75.744ZM162.121 86.08C161.428 86.08 160.772 85.984 160.153 85.792C159.535 85.5893 159.049 85.3387 158.697 85.04L159.209 84.144C159.551 84.4 159.988 84.624 160.521 84.816C161.055 84.9973 161.615 85.088 162.201 85.088C163.001 85.088 163.577 84.9653 163.929 84.72C164.281 84.464 164.457 84.128 164.457 83.712C164.457 83.4027 164.356 83.1627 164.153 82.992C163.961 82.8107 163.705 82.6773 163.385 82.592C163.065 82.496 162.708 82.416 162.313 82.352C161.919 82.288 161.524 82.2133 161.129 82.128C160.745 82.0427 160.393 81.92 160.073 81.76C159.753 81.5893 159.492 81.36 159.289 81.072C159.097 80.784 159.001 80.4 159.001 79.92C159.001 79.4613 159.129 79.0507 159.385 78.688C159.641 78.3253 160.015 78.0427 160.505 77.84C161.007 77.6267 161.615 77.52 162.329 77.52C162.873 77.52 163.417 77.5947 163.961 77.744C164.505 77.8827 164.953 78.0693 165.305 78.304L164.809 79.216C164.436 78.96 164.036 78.7787 163.609 78.672C163.183 78.5547 162.756 78.496 162.329 78.496C161.572 78.496 161.012 78.6293 160.649 78.896C160.297 79.152 160.121 79.4827 160.121 79.888C160.121 80.208 160.217 80.4587 160.409 80.64C160.612 80.8213 160.873 80.9653 161.193 81.072C161.524 81.168 161.881 81.248 162.265 81.312C162.66 81.376 163.049 81.456 163.433 81.552C163.828 81.6373 164.185 81.76 164.505 81.92C164.836 82.0693 165.097 82.288 165.289 82.576C165.492 82.8533 165.593 83.2213 165.593 83.68C165.593 84.1707 165.455 84.5973 165.177 84.96C164.911 85.312 164.516 85.5893 163.993 85.792C163.481 85.984 162.857 86.08 162.121 86.08ZM167.678 86V77.6H168.814V86H167.678ZM168.254 75.744C168.019 75.744 167.822 75.664 167.662 75.504C167.502 75.344 167.422 75.152 167.422 74.928C167.422 74.704 167.502 74.5173 167.662 74.368C167.822 74.208 168.019 74.128 168.254 74.128C168.488 74.128 168.686 74.2027 168.846 74.352C169.006 74.5013 169.086 74.688 169.086 74.912C169.086 75.1467 169.006 75.344 168.846 75.504C168.696 75.664 168.499 75.744 168.254 75.744ZM175.399 86.08C174.588 86.08 173.857 85.8987 173.207 85.536C172.567 85.1627 172.06 84.656 171.687 84.016C171.313 83.3653 171.127 82.624 171.127 81.792C171.127 80.9493 171.313 80.208 171.687 79.568C172.06 78.928 172.567 78.4267 173.207 78.064C173.847 77.7013 174.577 77.52 175.399 77.52C176.231 77.52 176.967 77.7013 177.607 78.064C178.257 78.4267 178.764 78.928 179.127 79.568C179.5 80.208 179.687 80.9493 179.687 81.792C179.687 82.624 179.5 83.3653 179.127 84.016C178.764 84.656 178.257 85.1627 177.607 85.536C176.956 85.8987 176.22 86.08 175.399 86.08ZM175.399 85.072C176.007 85.072 176.545 84.9387 177.015 84.672C177.484 84.3947 177.852 84.0107 178.119 83.52C178.396 83.0187 178.535 82.4427 178.535 81.792C178.535 81.1307 178.396 80.5547 178.119 80.064C177.852 79.5733 177.484 79.1947 177.015 78.928C176.545 78.6507 176.012 78.512 175.415 78.512C174.817 78.512 174.284 78.6507 173.815 78.928C173.345 79.1947 172.972 79.5733 172.695 80.064C172.417 80.5547 172.279 81.1307 172.279 81.792C172.279 82.4427 172.417 83.0187 172.695 83.52C172.972 84.0107 173.345 84.3947 173.815 84.672C174.284 84.9387 174.812 85.072 175.399 85.072ZM186.294 77.52C186.977 77.52 187.574 77.6533 188.086 77.92C188.609 78.176 189.014 78.5707 189.302 79.104C189.601 79.6373 189.75 80.3093 189.75 81.12V86H188.614V81.232C188.614 80.3467 188.39 79.68 187.942 79.232C187.505 78.7733 186.886 78.544 186.086 78.544C185.489 78.544 184.966 78.6667 184.518 78.912C184.081 79.1467 183.739 79.4933 183.494 79.952C183.259 80.4 183.142 80.944 183.142 81.584V86H182.006V77.6H183.094V79.904L182.918 79.472C183.185 78.864 183.611 78.3893 184.198 78.048C184.785 77.696 185.483 77.52 186.294 77.52ZM195.074 86.08C194.381 86.08 193.725 85.984 193.106 85.792C192.488 85.5893 192.002 85.3387 191.65 85.04L192.162 84.144C192.504 84.4 192.941 84.624 193.474 84.816C194.008 84.9973 194.568 85.088 195.154 85.088C195.954 85.088 196.53 84.9653 196.882 84.72C197.234 84.464 197.41 84.128 197.41 83.712C197.41 83.4027 197.309 83.1627 197.106 82.992C196.914 82.8107 196.658 82.6773 196.338 82.592C196.018 82.496 195.661 82.416 195.266 82.352C194.872 82.288 194.477 82.2133 194.082 82.128C193.698 82.0427 193.346 81.92 193.026 81.76C192.706 81.5893 192.445 81.36 192.242 81.072C192.05 80.784 191.954 80.4 191.954 79.92C191.954 79.4613 192.082 79.0507 192.338 78.688C192.594 78.3253 192.968 78.0427 193.458 77.84C193.96 77.6267 194.568 77.52 195.282 77.52C195.826 77.52 196.37 77.5947 196.914 77.744C197.458 77.8827 197.906 78.0693 198.258 78.304L197.762 79.216C197.389 78.96 196.989 78.7787 196.562 78.672C196.136 78.5547 195.709 78.496 195.282 78.496C194.525 78.496 193.965 78.6293 193.602 78.896C193.25 79.152 193.074 79.4827 193.074 79.888C193.074 80.208 193.17 80.4587 193.362 80.64C193.565 80.8213 193.826 80.9653 194.146 81.072C194.477 81.168 194.834 81.248 195.218 81.312C195.613 81.376 196.002 81.456 196.386 81.552C196.781 81.6373 197.138 81.76 197.458 81.92C197.789 82.0693 198.05 82.288 198.242 82.576C198.445 82.8533 198.546 83.2213 198.546 83.68C198.546 84.1707 198.408 84.5973 198.13 84.96C197.864 85.312 197.469 85.5893 196.946 85.792C196.434 85.984 195.81 86.08 195.074 86.08ZM206.53 86L203.362 77.6H204.45L207.33 85.392H206.834L209.794 77.6H210.77L213.698 85.392H213.202L216.13 77.6H217.17L213.986 86H212.914L210.098 78.672H210.434L207.602 86H206.53ZM218.881 86V77.6H220.017V86H218.881ZM219.457 75.744C219.222 75.744 219.025 75.664 218.865 75.504C218.705 75.344 218.625 75.152 218.625 74.928C218.625 74.704 218.705 74.5173 218.865 74.368C219.025 74.208 219.222 74.128 219.457 74.128C219.692 74.128 219.889 74.2027 220.049 74.352C220.209 74.5013 220.289 74.688 220.289 74.912C220.289 75.1467 220.209 75.344 220.049 75.504C219.9 75.664 219.702 75.744 219.457 75.744ZM225.834 86.08C225.044 86.08 224.436 85.8667 224.01 85.44C223.583 85.0133 223.37 84.4107 223.37 83.632V75.744H224.506V83.568C224.506 84.0587 224.628 84.4373 224.874 84.704C225.13 84.9707 225.492 85.104 225.962 85.104C226.463 85.104 226.879 84.96 227.21 84.672L227.61 85.488C227.386 85.6907 227.114 85.84 226.794 85.936C226.484 86.032 226.164 86.08 225.834 86.08ZM221.866 78.544V77.6H227.066V78.544H221.866ZM233.966 77.52C234.648 77.52 235.246 77.6533 235.758 77.92C236.28 78.176 236.686 78.5707 236.974 79.104C237.272 79.6373 237.422 80.3093 237.422 81.12V86H236.286V81.232C236.286 80.3467 236.062 79.68 235.614 79.232C235.176 78.7733 234.558 78.544 233.758 78.544C233.16 78.544 232.638 78.6667 232.19 78.912C231.752 79.1467 231.411 79.4933 231.166 79.952C230.931 80.4 230.814 80.944 230.814 81.584V86H229.678V74.128H230.814V79.904L230.59 79.472C230.856 78.864 231.283 78.3893 231.87 78.048C232.456 77.696 233.155 77.52 233.966 77.52ZM243.126 86L248.246 74.8H249.414L254.534 86H253.286L248.582 75.488H249.062L244.358 86H243.126ZM245.142 83.008L245.494 82.048H252.006L252.358 83.008H245.142ZM259.412 86.08C258.612 86.08 257.892 85.8987 257.252 85.536C256.623 85.1733 256.127 84.672 255.764 84.032C255.402 83.3813 255.22 82.6347 255.22 81.792C255.22 80.9387 255.402 80.192 255.764 79.552C256.127 78.912 256.623 78.416 257.252 78.064C257.892 77.7013 258.612 77.52 259.412 77.52C260.148 77.52 260.804 77.6853 261.38 78.016C261.967 78.3467 262.431 78.832 262.772 79.472C263.124 80.1013 263.3 80.8747 263.3 81.792C263.3 82.6987 263.13 83.472 262.788 84.112C262.447 84.752 261.983 85.2427 261.396 85.584C260.82 85.9147 260.159 86.08 259.412 86.08ZM259.492 85.072C260.09 85.072 260.623 84.9387 261.092 84.672C261.572 84.3947 261.946 84.0107 262.212 83.52C262.49 83.0187 262.628 82.4427 262.628 81.792C262.628 81.1307 262.49 80.5547 262.212 80.064C261.946 79.5733 261.572 79.1947 261.092 78.928C260.623 78.6507 260.09 78.512 259.492 78.512C258.906 78.512 258.378 78.6507 257.908 78.928C257.439 79.1947 257.066 79.5733 256.788 80.064C256.511 80.5547 256.372 81.1307 256.372 81.792C256.372 82.4427 256.511 83.0187 256.788 83.52C257.066 84.0107 257.439 84.3947 257.908 84.672C258.378 84.9387 258.906 85.072 259.492 85.072ZM262.66 86V83.472L262.772 81.776L262.612 80.08V74.128H263.748V86H262.66ZM269.072 86L265.344 77.6H266.528L269.952 85.392H269.392L272.864 77.6H273.984L270.24 86H269.072ZM280.598 86V84.144L280.55 83.84V80.736C280.55 80.0213 280.347 79.472 279.942 79.088C279.547 78.704 278.955 78.512 278.166 78.512C277.622 78.512 277.105 78.6027 276.614 78.784C276.123 78.9653 275.707 79.2053 275.366 79.504L274.854 78.656C275.281 78.2933 275.793 78.016 276.39 77.824C276.987 77.6213 277.617 77.52 278.278 77.52C279.366 77.52 280.203 77.792 280.79 78.336C281.387 78.8693 281.686 79.6853 281.686 80.784V86H280.598ZM277.702 86.08C277.073 86.08 276.523 85.9787 276.054 85.776C275.595 85.5627 275.243 85.2747 274.998 84.912C274.753 84.5387 274.63 84.112 274.63 83.632C274.63 83.1947 274.731 82.8 274.934 82.448C275.147 82.0853 275.489 81.7973 275.958 81.584C276.438 81.36 277.078 81.248 277.878 81.248H280.774V82.096H277.91C277.099 82.096 276.534 82.24 276.214 82.528C275.905 82.816 275.75 83.1733 275.75 83.6C275.75 84.08 275.937 84.464 276.31 84.752C276.683 85.04 277.206 85.184 277.878 85.184C278.518 85.184 279.067 85.04 279.526 84.752C279.995 84.4533 280.337 84.0267 280.55 83.472L280.806 84.256C280.593 84.8107 280.219 85.2533 279.686 85.584C279.163 85.9147 278.502 86.08 277.702 86.08ZM289.06 77.52C289.742 77.52 290.34 77.6533 290.852 77.92C291.374 78.176 291.78 78.5707 292.068 79.104C292.366 79.6373 292.516 80.3093 292.516 81.12V86H291.38V81.232C291.38 80.3467 291.156 79.68 290.708 79.232C290.27 78.7733 289.652 78.544 288.852 78.544C288.254 78.544 287.732 78.6667 287.284 78.912C286.846 79.1467 286.505 79.4933 286.26 79.952C286.025 80.4 285.908 80.944 285.908 81.584V86H284.772V77.6H285.86V79.904L285.684 79.472C285.95 78.864 286.377 78.3893 286.964 78.048C287.55 77.696 288.249 77.52 289.06 77.52ZM299.072 86.08C298.24 86.08 297.493 85.8987 296.832 85.536C296.181 85.1627 295.669 84.656 295.296 84.016C294.923 83.3653 294.736 82.624 294.736 81.792C294.736 80.9493 294.923 80.208 295.296 79.568C295.669 78.928 296.181 78.4267 296.832 78.064C297.493 77.7013 298.24 77.52 299.072 77.52C299.787 77.52 300.432 77.6587 301.008 77.936C301.584 78.2133 302.037 78.6293 302.368 79.184L301.52 79.76C301.232 79.3333 300.875 79.0187 300.448 78.816C300.021 78.6133 299.557 78.512 299.056 78.512C298.459 78.512 297.92 78.6507 297.44 78.928C296.96 79.1947 296.581 79.5733 296.304 80.064C296.027 80.5547 295.888 81.1307 295.888 81.792C295.888 82.4533 296.027 83.0293 296.304 83.52C296.581 84.0107 296.96 84.3947 297.44 84.672C297.92 84.9387 298.459 85.072 299.056 85.072C299.557 85.072 300.021 84.9707 300.448 84.768C300.875 84.5653 301.232 84.256 301.52 83.84L302.368 84.416C302.037 84.96 301.584 85.376 301.008 85.664C300.432 85.9413 299.787 86.08 299.072 86.08ZM308.027 86.08C307.152 86.08 306.384 85.8987 305.723 85.536C305.062 85.1627 304.544 84.656 304.171 84.016C303.798 83.3653 303.611 82.624 303.611 81.792C303.611 80.96 303.787 80.224 304.139 79.584C304.502 78.944 304.992 78.4427 305.611 78.08C306.24 77.7067 306.944 77.52 307.723 77.52C308.512 77.52 309.211 77.7013 309.819 78.064C310.438 78.416 310.923 78.9173 311.275 79.568C311.627 80.208 311.803 80.9493 311.803 81.792C311.803 81.8453 311.798 81.904 311.787 81.968C311.787 82.0213 311.787 82.08 311.787 82.144H304.475V81.296H311.179L310.731 81.632C310.731 81.024 310.598 80.4853 310.331 80.016C310.075 79.536 309.723 79.1627 309.275 78.896C308.827 78.6293 308.31 78.496 307.723 78.496C307.147 78.496 306.63 78.6293 306.171 78.896C305.712 79.1627 305.355 79.536 305.099 80.016C304.843 80.496 304.715 81.0453 304.715 81.664V81.84C304.715 82.48 304.854 83.0453 305.131 83.536C305.419 84.016 305.814 84.3947 306.315 84.672C306.827 84.9387 307.408 85.072 308.059 85.072C308.571 85.072 309.046 84.9813 309.483 84.8C309.931 84.6187 310.315 84.3413 310.635 83.968L311.275 84.704C310.902 85.152 310.432 85.4933 309.867 85.728C309.312 85.9627 308.699 86.08 308.027 86.08ZM317.459 86.08C316.659 86.08 315.939 85.8987 315.299 85.536C314.67 85.1733 314.174 84.672 313.811 84.032C313.449 83.3813 313.267 82.6347 313.267 81.792C313.267 80.9387 313.449 80.192 313.811 79.552C314.174 78.912 314.67 78.416 315.299 78.064C315.939 77.7013 316.659 77.52 317.459 77.52C318.195 77.52 318.851 77.6853 319.427 78.016C320.014 78.3467 320.478 78.832 320.819 79.472C321.171 80.1013 321.347 80.8747 321.347 81.792C321.347 82.6987 321.177 83.472 320.835 84.112C320.494 84.752 320.03 85.2427 319.443 85.584C318.867 85.9147 318.206 86.08 317.459 86.08ZM317.539 85.072C318.137 85.072 318.67 84.9387 319.139 84.672C319.619 84.3947 319.993 84.0107 320.259 83.52C320.537 83.0187 320.675 82.4427 320.675 81.792C320.675 81.1307 320.537 80.5547 320.259 80.064C319.993 79.5733 319.619 79.1947 319.139 78.928C318.67 78.6507 318.137 78.512 317.539 78.512C316.953 78.512 316.425 78.6507 315.955 78.928C315.486 79.1947 315.113 79.5733 314.835 80.064C314.558 80.5547 314.419 81.1307 314.419 81.792C314.419 82.4427 314.558 83.0187 314.835 83.52C315.113 84.0107 315.486 84.3947 315.955 84.672C316.425 84.9387 316.953 85.072 317.539 85.072ZM320.707 86V83.472L320.819 81.776L320.659 80.08V74.128H321.795V86H320.707ZM327.595 86L332.715 74.8H333.883L339.003 86H337.755L333.051 75.488H333.531L328.827 86H327.595ZM329.611 83.008L329.963 82.048H336.475L336.827 83.008H329.611ZM344.903 77.52C345.586 77.52 346.183 77.6533 346.695 77.92C347.218 78.176 347.623 78.5707 347.911 79.104C348.21 79.6373 348.359 80.3093 348.359 81.12V86H347.223V81.232C347.223 80.3467 346.999 79.68 346.551 79.232C346.114 78.7733 345.495 78.544 344.695 78.544C344.098 78.544 343.575 78.6667 343.127 78.912C342.69 79.1467 342.349 79.4933 342.103 79.952C341.869 80.4 341.751 80.944 341.751 81.584V86H340.615V77.6H341.703V79.904L341.527 79.472C341.794 78.864 342.221 78.3893 342.807 78.048C343.394 77.696 344.093 77.52 344.903 77.52ZM356.692 86V84.144L356.644 83.84V80.736C356.644 80.0213 356.441 79.472 356.036 79.088C355.641 78.704 355.049 78.512 354.26 78.512C353.716 78.512 353.198 78.6027 352.708 78.784C352.217 78.9653 351.801 79.2053 351.46 79.504L350.948 78.656C351.374 78.2933 351.886 78.016 352.484 77.824C353.081 77.6213 353.71 77.52 354.372 77.52C355.46 77.52 356.297 77.792 356.884 78.336C357.481 78.8693 357.78 79.6853 357.78 80.784V86H356.692ZM353.796 86.08C353.166 86.08 352.617 85.9787 352.148 85.776C351.689 85.5627 351.337 85.2747 351.092 84.912C350.846 84.5387 350.724 84.112 350.724 83.632C350.724 83.1947 350.825 82.8 351.028 82.448C351.241 82.0853 351.582 81.7973 352.052 81.584C352.532 81.36 353.172 81.248 353.972 81.248H356.868V82.096H354.004C353.193 82.096 352.628 82.24 352.308 82.528C351.998 82.816 351.844 83.1733 351.844 83.6C351.844 84.08 352.03 84.464 352.404 84.752C352.777 85.04 353.3 85.184 353.972 85.184C354.612 85.184 355.161 85.04 355.62 84.752C356.089 84.4533 356.43 84.0267 356.644 83.472L356.9 84.256C356.686 84.8107 356.313 85.2533 355.78 85.584C355.257 85.9147 354.596 86.08 353.796 86.08ZM360.865 86V74.128H362.001V86H360.865ZM365.226 89.184C364.831 89.184 364.453 89.12 364.09 88.992C363.738 88.864 363.434 88.672 363.178 88.416L363.706 87.568C363.919 87.7707 364.149 87.9253 364.394 88.032C364.65 88.1493 364.933 88.208 365.242 88.208C365.615 88.208 365.935 88.1013 366.202 87.888C366.479 87.6853 366.741 87.3227 366.986 86.8L367.53 85.568L367.658 85.392L371.114 77.6H372.234L368.026 87.008C367.791 87.552 367.53 87.984 367.242 88.304C366.965 88.624 366.661 88.848 366.33 88.976C365.999 89.1147 365.631 89.184 365.226 89.184ZM367.466 86.24L363.594 77.6H364.778L368.202 85.312L367.466 86.24ZM376.724 86.08C375.935 86.08 375.327 85.8667 374.9 85.44C374.474 85.0133 374.26 84.4107 374.26 83.632V75.744H375.396V83.568C375.396 84.0587 375.519 84.4373 375.764 84.704C376.02 84.9707 376.383 85.104 376.852 85.104C377.354 85.104 377.77 84.96 378.1 84.672L378.5 85.488C378.276 85.6907 378.004 85.84 377.684 85.936C377.375 86.032 377.055 86.08 376.724 86.08ZM372.756 78.544V77.6H377.956V78.544H372.756ZM380.568 86V77.6H381.704V86H380.568ZM381.144 75.744C380.91 75.744 380.712 75.664 380.552 75.504C380.392 75.344 380.312 75.152 380.312 74.928C380.312 74.704 380.392 74.5173 380.552 74.368C380.712 74.208 380.91 74.128 381.144 74.128C381.379 74.128 381.576 74.2027 381.736 74.352C381.896 74.5013 381.976 74.688 381.976 74.912C381.976 75.1467 381.896 75.344 381.736 75.504C381.587 75.664 381.39 75.744 381.144 75.744ZM388.353 86.08C387.521 86.08 386.775 85.8987 386.113 85.536C385.463 85.1627 384.951 84.656 384.577 84.016C384.204 83.3653 384.017 82.624 384.017 81.792C384.017 80.9493 384.204 80.208 384.577 79.568C384.951 78.928 385.463 78.4267 386.113 78.064C386.775 77.7013 387.521 77.52 388.353 77.52C389.068 77.52 389.713 77.6587 390.289 77.936C390.865 78.2133 391.319 78.6293 391.649 79.184L390.801 79.76C390.513 79.3333 390.156 79.0187 389.729 78.816C389.303 78.6133 388.839 78.512 388.337 78.512C387.74 78.512 387.201 78.6507 386.721 78.928C386.241 79.1947 385.863 79.5733 385.585 80.064C385.308 80.5547 385.169 81.1307 385.169 81.792C385.169 82.4533 385.308 83.0293 385.585 83.52C385.863 84.0107 386.241 84.3947 386.721 84.672C387.201 84.9387 387.74 85.072 388.337 85.072C388.839 85.072 389.303 84.9707 389.729 84.768C390.156 84.5653 390.513 84.256 390.801 83.84L391.649 84.416C391.319 84.96 390.865 85.376 390.289 85.664C389.713 85.9413 389.068 86.08 388.353 86.08ZM396.137 86.08C395.444 86.08 394.788 85.984 394.169 85.792C393.55 85.5893 393.065 85.3387 392.713 85.04L393.225 84.144C393.566 84.4 394.004 84.624 394.537 84.816C395.07 84.9973 395.63 85.088 396.217 85.088C397.017 85.088 397.593 84.9653 397.945 84.72C398.297 84.464 398.473 84.128 398.473 83.712C398.473 83.4027 398.372 83.1627 398.169 82.992C397.977 82.8107 397.721 82.6773 397.401 82.592C397.081 82.496 396.724 82.416 396.329 82.352C395.934 82.288 395.54 82.2133 395.145 82.128C394.761 82.0427 394.409 81.92 394.089 81.76C393.769 81.5893 393.508 81.36 393.305 81.072C393.113 80.784 393.017 80.4 393.017 79.92C393.017 79.4613 393.145 79.0507 393.401 78.688C393.657 78.3253 394.03 78.0427 394.521 77.84C395.022 77.6267 395.63 77.52 396.345 77.52C396.889 77.52 397.433 77.5947 397.977 77.744C398.521 77.8827 398.969 78.0693 399.321 78.304L398.825 79.216C398.452 78.96 398.052 78.7787 397.625 78.672C397.198 78.5547 396.772 78.496 396.345 78.496C395.588 78.496 395.028 78.6293 394.665 78.896C394.313 79.152 394.137 79.4827 394.137 79.888C394.137 80.208 394.233 80.4587 394.425 80.64C394.628 80.8213 394.889 80.9653 395.209 81.072C395.54 81.168 395.897 81.248 396.281 81.312C396.676 81.376 397.065 81.456 397.449 81.552C397.844 81.6373 398.201 81.76 398.521 81.92C398.852 82.0693 399.113 82.288 399.305 82.576C399.508 82.8533 399.609 83.2213 399.609 83.68C399.609 84.1707 399.47 84.5973 399.193 84.96C398.926 85.312 398.532 85.5893 398.009 85.792C397.497 85.984 396.873 86.08 396.137 86.08Z" fill="#072148"/>
</svg>
